ply
format ascii 1.0
comment Created by Blender 2.71 (sub 0) - www.blender.org, source file: ''
element vertex 408
property float x
property float y
property float z
property float nx
property float ny
property float nz
element face 174
property list uchar uint vertex_indices
end_header
-0.972223 -0.972223 -0.416668 -1.000000 -0.000000 0.000000
-0.972223 -0.972223 -0.138890 -1.000000 -0.000000 0.000000
-0.972223 -0.694445 -0.138890 -1.000000 -0.000000 0.000000
-0.972223 -0.694445 -0.416668 -1.000000 -0.000000 0.000000
-0.694445 -0.694445 -0.416668 1.000000 -0.000000 0.000000
-0.694445 -0.694445 -0.138890 1.000000 -0.000000 0.000000
-0.694445 -0.972223 -0.138890 1.000000 -0.000000 0.000000
-0.694445 -0.972223 -0.416668 1.000000 -0.000000 0.000000
-0.972223 -0.972223 -0.416668 0.000000 -1.000000 -0.000000
-0.694445 -0.972223 -0.416668 0.000000 -1.000000 -0.000000
-0.694445 -0.972223 -0.138890 0.000000 -1.000000 -0.000000
-0.972223 -0.972223 -0.138890 0.000000 -1.000000 -0.000000
-0.972223 -0.972223 -0.416668 -0.000000 0.000000 -1.000000
-0.972223 -0.694445 -0.416668 -0.000000 0.000000 -1.000000
-0.694445 -0.694445 -0.416668 -0.000000 0.000000 -1.000000
-0.694445 -0.972223 -0.416668 -0.000000 0.000000 -1.000000
-0.972223 -0.416667 -0.972224 -1.000000 -0.000000 0.000000
-0.972223 -0.416667 -0.694446 -1.000000 -0.000000 0.000000
-0.972223 -0.138889 -0.694446 -1.000000 -0.000000 0.000000
-0.972223 -0.138889 -0.972224 -1.000000 -0.000000 0.000000
-0.694445 -0.138889 -0.972224 1.000000 -0.000000 0.000000
-0.694445 -0.138889 -0.694446 1.000000 -0.000000 0.000000
-0.694445 -0.416667 -0.694446 1.000000 -0.000000 0.000000
-0.694445 -0.416667 -0.972224 1.000000 -0.000000 0.000000
-0.972223 -0.416667 -0.972224 0.000000 -1.000000 -0.000000
-0.694445 -0.416667 -0.972224 0.000000 -1.000000 -0.000000
-0.694445 -0.416667 -0.694446 0.000000 -1.000000 -0.000000
-0.972223 -0.416667 -0.694446 0.000000 -1.000000 -0.000000
-0.972223 -0.416667 -0.972224 -0.000000 0.000000 -1.000000
-0.972223 -0.138889 -0.972224 -0.000000 0.000000 -1.000000
-0.694445 -0.138889 -0.972224 -0.000000 0.000000 -1.000000
-0.694445 -0.416667 -0.972224 -0.000000 0.000000 -1.000000
-0.972223 -0.416667 -0.416668 -1.000000 -0.000000 0.000000
-0.972223 -0.416667 -0.138890 -1.000000 -0.000000 0.000000
-0.972223 -0.138889 -0.138890 -1.000000 -0.000000 0.000000
-0.972223 -0.138889 -0.416668 -1.000000 -0.000000 0.000000
-0.416667 -0.694445 -0.416668 0.000000 -1.000000 -0.000000
-0.138889 -0.694445 -0.416668 0.000000 -1.000000 -0.000000
-0.138889 -0.694445 -0.138890 0.000000 -1.000000 -0.000000
-0.416667 -0.694445 -0.138890 0.000000 -1.000000 -0.000000
-0.416667 -0.416667 -0.694446 -0.000000 0.000000 -1.000000
-0.416667 -0.138889 -0.694446 -0.000000 0.000000 -1.000000
-0.138889 -0.138889 -0.694446 -0.000000 0.000000 -1.000000
-0.138889 -0.416667 -0.694446 -0.000000 0.000000 -1.000000
-0.694445 -0.694445 -0.416668 0.000000 -1.000000 -0.000000
-0.694445 -0.694445 -0.138890 0.000000 -1.000000 -0.000000
-0.694445 -0.416667 -0.694446 -0.000000 0.000000 -1.000000
-0.694445 -0.138889 -0.694446 -0.000000 0.000000 -1.000000
-0.972223 -0.694445 -0.694446 -0.000000 0.000000 -1.000000
-0.972223 -0.416667 -0.694446 -0.000000 0.000000 -1.000000
-0.694445 -0.694445 -0.694446 -0.000000 0.000000 -1.000000
-0.138889 -0.416667 -0.416668 1.000000 -0.000000 0.000000
-0.138889 -0.416667 -0.138890 1.000000 -0.000000 0.000000
-0.138889 -0.694445 -0.138890 1.000000 -0.000000 0.000000
-0.138889 -0.694445 -0.416668 1.000000 -0.000000 0.000000
-0.416667 -0.694445 -0.416668 -0.000000 0.000000 -1.000000
-0.416667 -0.416667 -0.416668 -0.000000 0.000000 -1.000000
-0.138889 -0.416667 -0.416668 -0.000000 0.000000 -1.000000
-0.138889 -0.694445 -0.416668 -0.000000 0.000000 -1.000000
-0.972223 -0.694445 -0.694446 0.000000 -1.000000 -0.000000
-0.694445 -0.694445 -0.694446 0.000000 -1.000000 -0.000000
-0.972223 -0.694445 -0.416668 0.000000 -1.000000 -0.000000
-0.138889 -0.138889 -0.694446 1.000000 -0.000000 0.000000
-0.138889 -0.138889 -0.416668 1.000000 -0.000000 0.000000
-0.138889 -0.416667 -0.694446 1.000000 -0.000000 0.000000
-0.416667 -0.416667 -0.694446 0.000000 -1.000000 -0.000000
-0.138889 -0.416667 -0.694446 0.000000 -1.000000 -0.000000
-0.138889 -0.416667 -0.416668 0.000000 -1.000000 -0.000000
-0.416667 -0.416667 -0.416668 0.000000 -1.000000 -0.000000
-0.972223 -0.694445 -0.694446 -1.000000 -0.000000 0.000000
-0.694445 -0.416667 -0.416668 1.000000 -0.000000 0.000000
-0.694445 -0.694445 -0.694446 1.000000 -0.000000 0.000000
-0.694445 -0.416667 -0.416668 0.000000 -1.000000 -0.000000
-0.694445 -0.416667 -0.416668 -0.000000 0.000000 -1.000000
-0.972223 -0.972223 0.138888 -1.000000 -0.000000 0.000000
-0.972223 -0.972223 0.416666 -1.000000 -0.000000 0.000000
-0.972223 -0.694445 0.416666 -1.000000 -0.000000 0.000000
-0.972223 -0.694445 0.138888 -1.000000 -0.000000 0.000000
-0.694445 -0.694445 0.138888 1.000000 -0.000000 0.000000
-0.694445 -0.694445 0.416666 1.000000 -0.000000 0.000000
-0.694445 -0.972223 0.416666 1.000000 -0.000000 0.000000
-0.694445 -0.972223 0.138888 1.000000 -0.000000 0.000000
-0.972223 -0.972223 0.138888 0.000000 -1.000000 -0.000000
-0.694445 -0.972223 0.138888 0.000000 -1.000000 -0.000000
-0.694445 -0.972223 0.416666 0.000000 -1.000000 -0.000000
-0.972223 -0.972223 0.416666 0.000000 -1.000000 -0.000000
-0.694445 -0.972223 0.416666 -0.000000 0.000000 1.000000
-0.694445 -0.694445 0.416666 -0.000000 0.000000 1.000000
-0.972223 -0.694445 0.416666 -0.000000 0.000000 1.000000
-0.972223 -0.972223 0.416666 -0.000000 0.000000 1.000000
-0.972223 -0.416667 0.138888 -1.000000 -0.000000 0.000000
-0.972223 -0.416667 0.416666 -1.000000 -0.000000 0.000000
-0.972223 -0.138889 0.416666 -1.000000 -0.000000 0.000000
-0.972223 -0.138889 0.138888 -1.000000 -0.000000 0.000000
-0.972223 -0.416667 0.694444 -1.000000 -0.000000 0.000000
-0.972223 -0.416667 0.972222 -1.000000 -0.000000 0.000000
-0.972223 -0.138889 0.972222 -1.000000 -0.000000 0.000000
-0.972223 -0.138889 0.694444 -1.000000 -0.000000 0.000000
-0.694445 -0.138889 0.694444 1.000000 -0.000000 0.000000
-0.694445 -0.138889 0.972222 1.000000 -0.000000 0.000000
-0.694445 -0.416667 0.972222 1.000000 -0.000000 0.000000
-0.694445 -0.416667 0.694444 1.000000 -0.000000 0.000000
-0.972223 -0.416667 0.694444 0.000000 -1.000000 -0.000000
-0.694445 -0.416667 0.694444 0.000000 -1.000000 -0.000000
-0.694445 -0.416667 0.972222 0.000000 -1.000000 -0.000000
-0.972223 -0.416667 0.972222 0.000000 -1.000000 -0.000000
-0.694445 -0.416667 0.972222 -0.000000 0.000000 1.000000
-0.694445 -0.138889 0.972222 -0.000000 0.000000 1.000000
-0.972223 -0.138889 0.972222 -0.000000 0.000000 1.000000
-0.972223 -0.416667 0.972222 -0.000000 0.000000 1.000000
-0.416667 -0.694445 0.138888 0.000000 -1.000000 -0.000000
-0.138889 -0.694445 0.138888 0.000000 -1.000000 -0.000000
-0.138889 -0.694445 0.416666 0.000000 -1.000000 -0.000000
-0.416667 -0.694445 0.416666 0.000000 -1.000000 -0.000000
-0.138889 -0.416667 0.694444 -0.000000 0.000000 1.000000
-0.138889 -0.138889 0.694444 -0.000000 0.000000 1.000000
-0.416667 -0.138889 0.694444 -0.000000 0.000000 1.000000
-0.416667 -0.416667 0.694444 -0.000000 0.000000 1.000000
-0.694445 -0.694445 0.138888 0.000000 -1.000000 -0.000000
-0.694445 -0.694445 0.416666 0.000000 -1.000000 -0.000000
-0.694445 -0.138889 0.694444 -0.000000 0.000000 1.000000
-0.694445 -0.416667 0.694444 -0.000000 0.000000 1.000000
-0.138889 -0.416667 0.138888 1.000000 -0.000000 0.000000
-0.138889 -0.416667 0.416666 1.000000 -0.000000 0.000000
-0.138889 -0.694445 0.416666 1.000000 -0.000000 0.000000
-0.138889 -0.694445 0.138888 1.000000 -0.000000 0.000000
-0.138889 -0.694445 0.416666 -0.000000 0.000000 1.000000
-0.138889 -0.416667 0.416666 -0.000000 0.000000 1.000000
-0.416667 -0.416667 0.416666 -0.000000 0.000000 1.000000
-0.416667 -0.694445 0.416666 -0.000000 0.000000 1.000000
-0.694445 -0.694445 0.694444 -0.000000 0.000000 1.000000
-0.972223 -0.416667 0.694444 -0.000000 0.000000 1.000000
-0.972223 -0.694445 0.694444 -0.000000 0.000000 1.000000
-0.972223 -0.694445 0.416666 0.000000 -1.000000 -0.000000
-0.694445 -0.694445 0.694444 0.000000 -1.000000 -0.000000
-0.972223 -0.694445 0.694444 0.000000 -1.000000 -0.000000
-0.138889 -0.138889 0.416666 1.000000 -0.000000 0.000000
-0.138889 -0.138889 0.694444 1.000000 -0.000000 0.000000
-0.138889 -0.416667 0.694444 1.000000 -0.000000 0.000000
-0.416667 -0.416667 0.416666 0.000000 -1.000000 -0.000000
-0.138889 -0.416667 0.416666 0.000000 -1.000000 -0.000000
-0.138889 -0.416667 0.694444 0.000000 -1.000000 -0.000000
-0.416667 -0.416667 0.694444 0.000000 -1.000000 -0.000000
-0.972223 -0.694445 0.694444 -1.000000 -0.000000 0.000000
-0.694445 -0.416667 0.416666 1.000000 -0.000000 0.000000
-0.694445 -0.694445 0.694444 1.000000 -0.000000 0.000000
-0.694445 -0.416667 0.416666 0.000000 -1.000000 -0.000000
-0.694445 -0.416667 0.416666 -0.000000 0.000000 1.000000
-0.972223 0.138889 -0.972224 -1.000000 -0.000000 0.000000
-0.972223 0.138889 -0.694446 -1.000000 -0.000000 0.000000
-0.972223 0.416667 -0.694446 -1.000000 -0.000000 0.000000
-0.972223 0.416667 -0.972224 -1.000000 -0.000000 0.000000
-0.694445 0.416667 -0.972224 1.000000 -0.000000 0.000000
-0.694445 0.416667 -0.694446 1.000000 -0.000000 0.000000
-0.694445 0.138889 -0.694446 1.000000 -0.000000 0.000000
-0.694445 0.138889 -0.972224 1.000000 -0.000000 0.000000
-0.972223 0.416667 -0.694446 0.000000 1.000000 -0.000000
-0.694445 0.416667 -0.694446 0.000000 1.000000 -0.000000
-0.694445 0.416667 -0.972224 0.000000 1.000000 -0.000000
-0.972223 0.416667 -0.972224 0.000000 1.000000 -0.000000
-0.972223 0.138889 -0.972224 -0.000000 0.000000 -1.000000
-0.972223 0.416667 -0.972224 -0.000000 0.000000 -1.000000
-0.694445 0.416667 -0.972224 -0.000000 0.000000 -1.000000
-0.694445 0.138889 -0.972224 -0.000000 0.000000 -1.000000
-0.972223 0.138889 -0.416668 -1.000000 -0.000000 0.000000
-0.972223 0.138889 -0.138890 -1.000000 -0.000000 0.000000
-0.972223 0.416667 -0.138890 -1.000000 -0.000000 0.000000
-0.972223 0.416667 -0.416668 -1.000000 -0.000000 0.000000
-0.972223 0.694445 -0.416668 -1.000000 -0.000000 0.000000
-0.972223 0.694445 -0.138890 -1.000000 -0.000000 0.000000
-0.972223 0.972223 -0.138890 -1.000000 -0.000000 0.000000
-0.972223 0.972223 -0.416668 -1.000000 -0.000000 0.000000
-0.694445 0.972223 -0.416668 1.000000 -0.000000 0.000000
-0.694445 0.972223 -0.138890 1.000000 -0.000000 0.000000
-0.694445 0.694445 -0.138890 1.000000 -0.000000 0.000000
-0.694445 0.694445 -0.416668 1.000000 -0.000000 0.000000
-0.972223 0.972223 -0.138890 0.000000 1.000000 -0.000000
-0.694445 0.972223 -0.138890 0.000000 1.000000 -0.000000
-0.694445 0.972223 -0.416668 0.000000 1.000000 -0.000000
-0.972223 0.972223 -0.416668 0.000000 1.000000 -0.000000
-0.972223 0.694445 -0.416668 -0.000000 0.000000 -1.000000
-0.972223 0.972223 -0.416668 -0.000000 0.000000 -1.000000
-0.694445 0.972223 -0.416668 -0.000000 0.000000 -1.000000
-0.694445 0.694445 -0.416668 -0.000000 0.000000 -1.000000
-0.416667 0.138889 -0.694446 -0.000000 0.000000 -1.000000
-0.416667 0.416667 -0.694446 -0.000000 0.000000 -1.000000
-0.138889 0.416667 -0.694446 -0.000000 0.000000 -1.000000
-0.138889 0.138889 -0.694446 -0.000000 0.000000 -1.000000
-0.416667 0.694445 -0.138890 0.000000 1.000000 -0.000000
-0.138889 0.694445 -0.138890 0.000000 1.000000 -0.000000
-0.138889 0.694445 -0.416668 0.000000 1.000000 -0.000000
-0.416667 0.694445 -0.416668 0.000000 1.000000 -0.000000
-0.694445 0.138889 -0.694446 -0.000000 0.000000 -1.000000
-0.694445 0.416667 -0.694446 -0.000000 0.000000 -1.000000
-0.694445 0.694445 -0.138890 0.000000 1.000000 -0.000000
-0.694445 0.694445 -0.416668 0.000000 1.000000 -0.000000
-0.972223 0.416667 -0.694446 -0.000000 0.000000 -1.000000
-0.972223 0.694445 -0.694446 -0.000000 0.000000 -1.000000
-0.694445 0.694445 -0.694446 -0.000000 0.000000 -1.000000
-0.138889 0.694445 -0.416668 1.000000 -0.000000 0.000000
-0.138889 0.694445 -0.138890 1.000000 -0.000000 0.000000
-0.138889 0.416667 -0.138890 1.000000 -0.000000 0.000000
-0.138889 0.416667 -0.416668 1.000000 -0.000000 0.000000
-0.416667 0.416667 -0.416668 -0.000000 0.000000 -1.000000
-0.416667 0.694445 -0.416668 -0.000000 0.000000 -1.000000
-0.138889 0.694445 -0.416668 -0.000000 0.000000 -1.000000
-0.138889 0.416667 -0.416668 -0.000000 0.000000 -1.000000
-0.972223 0.694445 -0.416668 0.000000 1.000000 -0.000000
-0.694445 0.694445 -0.694446 0.000000 1.000000 -0.000000
-0.972223 0.694445 -0.694446 0.000000 1.000000 -0.000000
-0.138889 0.416667 -0.694446 1.000000 -0.000000 0.000000
-0.138889 0.138889 -0.416668 1.000000 -0.000000 0.000000
-0.138889 0.138889 -0.694446 1.000000 -0.000000 0.000000
-0.416667 0.416667 -0.416668 0.000000 1.000000 -0.000000
-0.138889 0.416667 -0.416668 0.000000 1.000000 -0.000000
-0.138889 0.416667 -0.694446 0.000000 1.000000 -0.000000
-0.416667 0.416667 -0.694446 0.000000 1.000000 -0.000000
-0.972223 0.694445 -0.694446 -1.000000 -0.000000 0.000000
-0.694445 0.694445 -0.694446 1.000000 -0.000000 0.000000
-0.694445 0.416667 -0.416668 1.000000 -0.000000 0.000000
-0.694445 0.416667 -0.416668 0.000000 1.000000 -0.000000
-0.694445 0.416667 -0.416668 -0.000000 0.000000 -1.000000
-0.972223 0.138889 0.138888 -1.000000 -0.000000 0.000000
-0.972223 0.138889 0.416666 -1.000000 -0.000000 0.000000
-0.972223 0.416667 0.416666 -1.000000 -0.000000 0.000000
-0.972223 0.416667 0.138888 -1.000000 -0.000000 0.000000
-0.972223 0.138889 0.694444 -1.000000 -0.000000 0.000000
-0.972223 0.138889 0.972222 -1.000000 -0.000000 0.000000
-0.972223 0.416667 0.972222 -1.000000 -0.000000 0.000000
-0.972223 0.416667 0.694444 -1.000000 -0.000000 0.000000
-0.694445 0.416667 0.694444 1.000000 -0.000000 0.000000
-0.694445 0.416667 0.972222 1.000000 -0.000000 0.000000
-0.694445 0.138889 0.972222 1.000000 -0.000000 0.000000
-0.694445 0.138889 0.694444 1.000000 -0.000000 0.000000
-0.972223 0.416667 0.972222 0.000000 1.000000 -0.000000
-0.694445 0.416667 0.972222 0.000000 1.000000 -0.000000
-0.694445 0.416667 0.694444 0.000000 1.000000 -0.000000
-0.972223 0.416667 0.694444 0.000000 1.000000 -0.000000
-0.694445 0.138889 0.972222 -0.000000 0.000000 1.000000
-0.694445 0.416667 0.972222 -0.000000 0.000000 1.000000
-0.972223 0.416667 0.972222 -0.000000 0.000000 1.000000
-0.972223 0.138889 0.972222 -0.000000 0.000000 1.000000
-0.972223 0.694445 0.138888 -1.000000 -0.000000 0.000000
-0.972223 0.694445 0.416666 -1.000000 -0.000000 0.000000
-0.972223 0.972223 0.416666 -1.000000 -0.000000 0.000000
-0.972223 0.972223 0.138888 -1.000000 -0.000000 0.000000
-0.694445 0.972223 0.138888 1.000000 -0.000000 0.000000
-0.694445 0.972223 0.416666 1.000000 -0.000000 0.000000
-0.694445 0.694445 0.416666 1.000000 -0.000000 0.000000
-0.694445 0.694445 0.138888 1.000000 -0.000000 0.000000
-0.972223 0.972223 0.416666 0.000000 1.000000 -0.000000
-0.694445 0.972223 0.416666 0.000000 1.000000 -0.000000
-0.694445 0.972223 0.138888 0.000000 1.000000 -0.000000
-0.972223 0.972223 0.138888 0.000000 1.000000 -0.000000
-0.694445 0.694445 0.416666 -0.000000 0.000000 1.000000
-0.694445 0.972223 0.416666 -0.000000 0.000000 1.000000
-0.972223 0.972223 0.416666 -0.000000 0.000000 1.000000
-0.972223 0.694445 0.416666 -0.000000 0.000000 1.000000
-0.138889 0.138889 0.694444 -0.000000 0.000000 1.000000
-0.138889 0.416667 0.694444 -0.000000 0.000000 1.000000
-0.416667 0.416667 0.694444 -0.000000 0.000000 1.000000
-0.416667 0.138889 0.694444 -0.000000 0.000000 1.000000
-0.416667 0.694445 0.416666 0.000000 1.000000 -0.000000
-0.138889 0.694445 0.416666 0.000000 1.000000 -0.000000
-0.138889 0.694445 0.138888 0.000000 1.000000 -0.000000
-0.416667 0.694445 0.138888 0.000000 1.000000 -0.000000
-0.694445 0.416667 0.694444 -0.000000 0.000000 1.000000
-0.694445 0.138889 0.694444 -0.000000 0.000000 1.000000
-0.694445 0.694445 0.416666 0.000000 1.000000 -0.000000
-0.694445 0.694445 0.138888 0.000000 1.000000 -0.000000
-0.138889 0.694445 0.138888 1.000000 -0.000000 0.000000
-0.138889 0.694445 0.416666 1.000000 -0.000000 0.000000
-0.138889 0.416667 0.416666 1.000000 -0.000000 0.000000
-0.138889 0.416667 0.138888 1.000000 -0.000000 0.000000
-0.138889 0.416667 0.416666 -0.000000 0.000000 1.000000
-0.138889 0.694445 0.416666 -0.000000 0.000000 1.000000
-0.416667 0.694445 0.416666 -0.000000 0.000000 1.000000
-0.416667 0.416667 0.416666 -0.000000 0.000000 1.000000
-0.694445 0.694445 0.694444 -0.000000 0.000000 1.000000
-0.972223 0.694445 0.694444 -0.000000 0.000000 1.000000
-0.972223 0.416667 0.694444 -0.000000 0.000000 1.000000
-0.972223 0.694445 0.694444 0.000000 1.000000 -0.000000
-0.694445 0.694445 0.694444 0.000000 1.000000 -0.000000
-0.972223 0.694445 0.416666 0.000000 1.000000 -0.000000
-0.138889 0.416667 0.694444 1.000000 -0.000000 0.000000
-0.138889 0.138889 0.694444 1.000000 -0.000000 0.000000
-0.138889 0.138889 0.416666 1.000000 -0.000000 0.000000
-0.416667 0.416667 0.694444 0.000000 1.000000 -0.000000
-0.138889 0.416667 0.694444 0.000000 1.000000 -0.000000
-0.138889 0.416667 0.416666 0.000000 1.000000 -0.000000
-0.416667 0.416667 0.416666 0.000000 1.000000 -0.000000
-0.972223 0.694445 0.694444 -1.000000 -0.000000 0.000000
-0.694445 0.694445 0.694444 1.000000 -0.000000 0.000000
-0.694445 0.416667 0.416666 1.000000 -0.000000 0.000000
-0.694445 0.416667 0.416666 0.000000 1.000000 -0.000000
-0.694445 0.416667 0.416666 -0.000000 0.000000 1.000000
0.138888 -0.138889 -0.416668 1.000000 -0.000000 0.000000
0.138888 -0.138889 -0.138890 1.000000 -0.000000 0.000000
0.138888 -0.416667 -0.138890 1.000000 -0.000000 0.000000
0.138888 -0.416667 -0.416668 1.000000 -0.000000 0.000000
0.138888 -0.138889 -0.416668 0.000000 -1.000000 -0.000000
0.416666 -0.138889 -0.416668 0.000000 -1.000000 -0.000000
0.416666 -0.138889 -0.138890 0.000000 -1.000000 -0.000000
0.138888 -0.138889 -0.138890 0.000000 -1.000000 -0.000000
0.138888 -0.416667 -0.138890 -0.000000 0.000000 -1.000000
0.138888 -0.138889 -0.138890 -0.000000 0.000000 -1.000000
0.416666 -0.138889 -0.138890 -0.000000 0.000000 -1.000000
0.416666 -0.416667 -0.138890 -0.000000 0.000000 -1.000000
0.138888 -0.138889 0.138888 1.000000 -0.000000 0.000000
0.138888 -0.138889 0.416666 1.000000 -0.000000 0.000000
0.138888 -0.416667 0.416666 1.000000 -0.000000 0.000000
0.138888 -0.416667 0.138888 1.000000 -0.000000 0.000000
0.138888 -0.138889 0.138888 0.000000 -1.000000 -0.000000
0.416666 -0.138889 0.138888 0.000000 -1.000000 -0.000000
0.416666 -0.138889 0.416666 0.000000 -1.000000 -0.000000
0.138888 -0.138889 0.416666 0.000000 -1.000000 -0.000000
0.416666 -0.416667 0.138888 -0.000000 0.000000 1.000000
0.416666 -0.138889 0.138888 -0.000000 0.000000 1.000000
0.138888 -0.138889 0.138888 -0.000000 0.000000 1.000000
0.138888 -0.416667 0.138888 -0.000000 0.000000 1.000000
0.138888 0.416667 -0.416668 1.000000 -0.000000 0.000000
0.138888 0.416667 -0.138890 1.000000 -0.000000 0.000000
0.138888 0.138889 -0.138890 1.000000 -0.000000 0.000000
0.138888 0.138889 -0.416668 1.000000 -0.000000 0.000000
0.138888 0.138889 -0.138890 0.000000 1.000000 -0.000000
0.416666 0.138889 -0.138890 0.000000 1.000000 -0.000000
0.416666 0.138889 -0.416668 0.000000 1.000000 -0.000000
0.138888 0.138889 -0.416668 0.000000 1.000000 -0.000000
0.138888 0.138889 -0.138890 -0.000000 0.000000 -1.000000
0.138888 0.416667 -0.138890 -0.000000 0.000000 -1.000000
0.416666 0.416667 -0.138890 -0.000000 0.000000 -1.000000
0.416666 0.138889 -0.138890 -0.000000 0.000000 -1.000000
0.138888 0.416667 0.138888 1.000000 -0.000000 0.000000
0.138888 0.416667 0.416666 1.000000 -0.000000 0.000000
0.138888 0.138889 0.416666 1.000000 -0.000000 0.000000
0.138888 0.138889 0.138888 1.000000 -0.000000 0.000000
0.138888 0.138889 0.416666 0.000000 1.000000 -0.000000
0.416666 0.138889 0.416666 0.000000 1.000000 -0.000000
0.416666 0.138889 0.138888 0.000000 1.000000 -0.000000
0.138888 0.138889 0.138888 0.000000 1.000000 -0.000000
0.416666 0.138889 0.138888 -0.000000 0.000000 1.000000
0.416666 0.416667 0.138888 -0.000000 0.000000 1.000000
0.138888 0.416667 0.138888 -0.000000 0.000000 1.000000
0.138888 0.138889 0.138888 -0.000000 0.000000 1.000000
0.138888 -0.416667 -0.416668 0.000000 -1.000000 -0.000000
0.138888 -0.416667 -0.138890 0.000000 -1.000000 -0.000000
-0.138889 -0.416667 -0.138890 0.000000 -1.000000 -0.000000
-0.138889 -0.138889 -0.416668 -0.000000 0.000000 -1.000000
0.138888 -0.138889 -0.416668 -0.000000 0.000000 -1.000000
0.138888 -0.416667 -0.416668 -0.000000 0.000000 -1.000000
-0.138889 -0.416667 0.138888 0.000000 -1.000000 -0.000000
0.138888 -0.416667 0.138888 0.000000 -1.000000 -0.000000
0.138888 -0.416667 0.416666 0.000000 -1.000000 -0.000000
0.138888 -0.416667 0.416666 -0.000000 0.000000 1.000000
0.138888 -0.138889 0.416666 -0.000000 0.000000 1.000000
-0.138889 -0.138889 0.416666 -0.000000 0.000000 1.000000
-0.138889 0.416667 -0.138890 0.000000 1.000000 -0.000000
0.138888 0.416667 -0.138890 0.000000 1.000000 -0.000000
0.138888 0.416667 -0.416668 0.000000 1.000000 -0.000000
-0.138889 0.138889 -0.416668 -0.000000 0.000000 -1.000000
0.138888 0.416667 -0.416668 -0.000000 0.000000 -1.000000
0.138888 0.138889 -0.416668 -0.000000 0.000000 -1.000000
0.138888 0.416667 0.416666 0.000000 1.000000 -0.000000
0.138888 0.416667 0.138888 0.000000 1.000000 -0.000000
-0.138889 0.416667 0.138888 0.000000 1.000000 -0.000000
0.138888 0.138889 0.416666 -0.000000 0.000000 1.000000
0.138888 0.416667 0.416666 -0.000000 0.000000 1.000000
-0.138889 0.138889 0.416666 -0.000000 0.000000 1.000000
0.416666 0.138889 -0.416668 1.000000 -0.000000 0.000000
0.416666 0.138889 -0.138890 1.000000 -0.000000 0.000000
0.416666 -0.138889 -0.138890 1.000000 -0.000000 0.000000
0.416666 -0.138889 -0.416668 1.000000 -0.000000 0.000000
0.416666 0.138889 -0.416668 -0.000000 0.000000 -1.000000
0.416666 -0.138889 -0.416668 -0.000000 0.000000 -1.000000
0.694444 -0.138889 -0.138890 -0.000000 0.000000 -1.000000
0.694444 0.138889 -0.138890 -0.000000 0.000000 -1.000000
0.972222 0.138889 -0.138890 -0.000000 0.000000 -1.000000
0.972222 -0.138889 -0.138890 -0.000000 0.000000 -1.000000
0.416666 0.138889 0.138888 1.000000 -0.000000 0.000000
0.416666 0.138889 0.416666 1.000000 -0.000000 0.000000
0.416666 -0.138889 0.416666 1.000000 -0.000000 0.000000
0.416666 -0.138889 0.138888 1.000000 -0.000000 0.000000
0.416666 -0.138889 0.416666 -0.000000 0.000000 1.000000
0.416666 0.138889 0.416666 -0.000000 0.000000 1.000000
0.972222 -0.138889 0.138888 -0.000000 0.000000 1.000000
0.972222 0.138889 0.138888 -0.000000 0.000000 1.000000
0.694444 0.138889 0.138888 -0.000000 0.000000 1.000000
0.694444 -0.138889 0.138888 -0.000000 0.000000 1.000000
0.416666 -0.416667 0.138888 1.000000 -0.000000 0.000000
0.416666 -0.416667 -0.138890 1.000000 -0.000000 0.000000
0.416666 -0.416667 -0.138890 0.000000 -1.000000 -0.000000
0.416666 -0.416667 0.138888 0.000000 -1.000000 -0.000000
0.694444 -0.138889 -0.138890 0.000000 -1.000000 -0.000000
0.972222 -0.138889 -0.138890 0.000000 -1.000000 -0.000000
0.972222 -0.138889 0.138888 0.000000 -1.000000 -0.000000
0.694444 -0.138889 0.138888 0.000000 -1.000000 -0.000000
0.416666 0.416667 -0.138890 1.000000 -0.000000 0.000000
0.416666 0.416667 0.138888 1.000000 -0.000000 0.000000
0.416666 0.416667 0.138888 0.000000 1.000000 -0.000000
0.416666 0.416667 -0.138890 0.000000 1.000000 -0.000000
0.694444 0.138889 0.138888 0.000000 1.000000 -0.000000
0.972222 0.138889 0.138888 0.000000 1.000000 -0.000000
0.972222 0.138889 -0.138890 0.000000 1.000000 -0.000000
0.694444 0.138889 -0.138890 0.000000 1.000000 -0.000000
0.972222 0.138889 -0.138890 1.000000 -0.000000 0.000000
0.972222 0.138889 0.138888 1.000000 -0.000000 0.000000
0.972222 -0.138889 0.138888 1.000000 -0.000000 0.000000
0.972222 -0.138889 -0.138890 1.000000 -0.000000 0.000000
4 0 1 2 3
4 4 5 6 7
4 8 9 10 11
4 12 13 14 15
4 16 17 18 19
4 20 21 22 23
4 24 25 26 27
4 28 29 30 31
4 32 33 34 35
4 36 37 38 39
4 40 41 42 43
4 44 36 39 45
4 46 47 41 40
4 48 49 46 50
4 3 2 33 32
4 51 52 53 54
4 55 56 57 58
4 59 60 44 61
4 17 32 35 18
4 62 63 51 64
4 65 66 67 68
4 69 3 32 17
4 22 70 4 71
4 26 65 68 72
4 14 73 56 55
4 74 75 76 77
4 78 79 80 81
4 82 83 84 85
4 86 87 88 89
4 90 91 92 93
4 94 95 96 97
4 98 99 100 101
4 102 103 104 105
4 106 107 108 109
4 110 111 112 113
4 114 115 116 117
4 118 110 113 119
4 117 116 120 121
4 77 76 91 90
4 122 123 124 125
4 126 127 128 129
4 130 121 131 132
4 133 119 134 135
4 91 94 97 92
4 136 137 138 123
4 139 140 141 142
4 76 143 94 91
4 144 101 145 79
4 146 139 142 103
4 129 128 147 87
4 148 149 150 151
4 152 153 154 155
4 156 157 158 159
4 160 161 162 163
4 164 165 166 167
4 168 169 170 171
4 172 173 174 175
4 176 177 178 179
4 180 181 182 183
4 184 185 186 187
4 188 189 190 191
4 192 193 185 184
4 194 188 191 195
4 196 197 198 193
4 167 166 169 168
4 199 200 201 202
4 203 204 205 206
4 149 164 167 150
4 207 195 208 209
4 210 202 211 212
4 213 214 215 216
4 150 167 168 217
4 218 175 219 153
4 220 213 216 157
4 221 183 204 203
4 222 223 224 225
4 226 227 228 229
4 230 231 232 233
4 234 235 236 237
4 238 239 240 241
4 242 243 244 245
4 246 247 248 249
4 250 251 252 253
4 254 255 256 257
4 258 259 260 261
4 262 263 264 265
4 261 260 266 267
4 268 262 265 269
4 225 224 243 242
4 270 271 272 273
4 274 275 276 277
4 266 278 279 280
4 223 226 229 224
4 281 282 268 283
4 272 284 285 286
4 287 288 289 290
4 224 229 291 243
4 248 292 230 293
4 236 287 290 294
4 277 276 254 295
4 296 297 298 299
4 300 301 302 303
4 304 305 306 307
4 308 309 310 311
4 312 313 314 315
4 316 317 318 319
4 320 321 322 323
4 324 325 326 327
4 328 329 330 331
4 332 333 334 335
4 336 337 338 339
4 340 341 342 343
4 67 344 345 346
4 57 347 348 349
4 350 351 352 140
4 353 354 355 127
4 356 357 358 214
4 359 206 360 361
4 289 362 363 364
4 365 366 274 367
4 19 18 149 148
4 155 154 21 20
4 29 160 163 30
4 41 184 187 42
4 35 34 165 164
4 18 35 164 149
4 212 211 63 62
4 47 192 184 41
4 368 369 370 371
4 348 361 372 373
4 374 375 376 377
4 306 331 375 374
4 93 92 223 222
4 97 96 227 226
4 233 232 99 98
4 107 238 241 108
4 115 258 261 116
4 92 97 226 223
4 286 285 137 136
4 116 261 267 120
4 378 379 380 381
4 382 383 365 354
4 384 385 386 387
4 387 386 340 317
4 1 74 77 2
4 5 78 81 6
4 11 10 83 82
4 33 90 93 34
4 39 38 111 110
4 2 77 90 33
4 52 122 125 53
4 45 39 110 118
4 165 222 225 166
4 169 242 245 170
4 173 246 249 174
4 253 252 177 176
4 265 264 189 188
4 166 225 242 169
4 200 270 273 201
4 269 265 188 194
4 370 381 388 389
4 345 390 391 351
4 392 393 394 395
4 302 392 395 313
4 396 397 378 369
4 363 398 399 357
4 400 401 402 403
4 338 400 403 325
4 34 93 222 165
4 404 405 406 407
4 346 345 351 350
4 364 363 357 356
4 347 359 361 348
4 354 365 367 355
