ply
format ascii 1.0
comment Created by Blender 2.71 (sub 0) - www.blender.org, source file: ''
element vertex 54
property float x
property float y
property float z
property float nx
property float ny
property float nz
element face 24
property list uchar uint vertex_indices
end_header
-3.124293 -2.683245 -1.330419 -1.000000 0.000000 -0.000000
-3.124293 -3.683245 -1.330419 -1.000000 0.000000 -0.000000
-3.124293 -3.683245 -0.330419 -1.000000 0.000000 -0.000000
-3.124293 -2.683245 -0.330419 -1.000000 0.000000 -0.000000
-3.124293 -1.683245 -0.330419 -1.000000 -0.000000 0.000000
-3.124293 -1.683245 -1.330419 -1.000000 -0.000000 0.000000
-3.124293 -1.683245 -2.330419 -1.000000 0.000000 0.000000
-3.124293 -2.683245 -2.330419 -1.000000 0.000000 0.000000
-3.124293 -3.683245 -2.330419 -1.000000 0.000000 0.000000
-2.124293 -1.683245 -1.330419 0.000000 1.000000 0.000000
-3.124293 -1.683245 -1.330419 0.000000 1.000000 0.000000
-3.124293 -1.683245 -0.330419 0.000000 1.000000 0.000000
-2.124293 -1.683245 -0.330419 0.000000 1.000000 0.000000
-1.124293 -1.683245 -0.330419 0.000000 1.000000 0.000000
-1.124293 -1.683245 -1.330419 0.000000 1.000000 0.000000
-1.124293 -1.683245 -2.330419 0.000000 1.000000 -0.000000
-2.124293 -1.683245 -2.330419 0.000000 1.000000 -0.000000
-3.124293 -1.683245 -2.330419 -0.000000 1.000000 0.000000
-1.124293 -2.683245 -1.330419 1.000000 0.000000 0.000000
-1.124293 -1.683245 -1.330419 1.000000 0.000000 0.000000
-1.124293 -1.683245 -0.330419 1.000000 0.000000 0.000000
-1.124293 -2.683245 -0.330419 1.000000 0.000000 0.000000
-1.124293 -3.683245 -0.330419 1.000000 -0.000000 0.000000
-1.124293 -3.683245 -1.330419 1.000000 -0.000000 0.000000
-1.124293 -3.683245 -2.330419 1.000000 0.000000 -0.000000
-1.124293 -2.683245 -2.330419 1.000000 0.000000 -0.000000
-1.124293 -1.683245 -2.330419 1.000000 0.000000 0.000000
-2.124293 -3.683245 -1.330419 0.000000 -1.000000 -0.000000
-1.124293 -3.683245 -1.330419 0.000000 -1.000000 -0.000000
-1.124293 -3.683245 -0.330419 0.000000 -1.000000 -0.000000
-2.124293 -3.683245 -0.330419 0.000000 -1.000000 -0.000000
-3.124293 -3.683245 -0.330419 0.000000 -1.000000 0.000000
-3.124293 -3.683245 -1.330419 0.000000 -1.000000 0.000000
-3.124293 -3.683245 -2.330419 0.000000 -1.000000 0.000000
-2.124293 -3.683245 -2.330419 0.000000 -1.000000 0.000000
-1.124293 -3.683245 -2.330419 -0.000000 -1.000000 0.000000
-2.124293 -2.683245 -2.330419 0.000000 0.000000 -1.000000
-2.124293 -3.683245 -2.330419 0.000000 0.000000 -1.000000
-3.124293 -3.683245 -2.330419 0.000000 0.000000 -1.000000
-3.124293 -2.683245 -2.330419 0.000000 0.000000 -1.000000
-3.124293 -1.683245 -2.330419 0.000000 -0.000000 -1.000000
-2.124293 -1.683245 -2.330419 0.000000 -0.000000 -1.000000
-1.124293 -1.683245 -2.330419 -0.000000 0.000000 -1.000000
-1.124293 -2.683245 -2.330419 -0.000000 0.000000 -1.000000
-1.124293 -3.683245 -2.330419 0.000000 0.000000 -1.000000
-2.124293 -2.683245 -0.330419 0.000000 0.000000 1.000000
-2.124293 -3.683245 -0.330419 0.000000 0.000000 1.000000
-1.124293 -3.683245 -0.330419 0.000000 0.000000 1.000000
-1.124293 -2.683245 -0.330419 0.000000 0.000000 1.000000
-1.124293 -1.683245 -0.330419 0.000000 0.000000 1.000000
-2.124293 -1.683245 -0.330419 0.000000 0.000000 1.000000
-3.124293 -1.683245 -0.330419 -0.000000 0.000000 1.000000
-3.124293 -2.683245 -0.330419 -0.000000 0.000000 1.000000
-3.124293 -3.683245 -0.330419 0.000000 -0.000000 1.000000
4 0 1 2 3
4 0 3 4 5
4 0 5 6 7
4 0 7 8 1
4 9 10 11 12
4 9 12 13 14
4 9 14 15 16
4 9 16 17 10
4 18 19 20 21
4 18 21 22 23
4 18 23 24 25
4 18 25 26 19
4 27 28 29 30
4 27 30 31 32
4 27 32 33 34
4 27 34 35 28
4 36 37 38 39
4 36 39 40 41
4 36 41 42 43
4 36 43 44 37
4 45 46 47 48
4 45 48 49 50
4 45 50 51 52
4 45 52 53 46
