ply
format ascii 1.0
comment Created by Blender 2.71 (sub 0) - www.blender.org, source file: ''
element vertex 120
property float x
property float y
property float z
property float nx
property float ny
property float nz
element face 46
property list uchar uint vertex_indices
end_header
-0.565564 -3.027400 -2.418522 -1.000000 -0.000000 0.000000
-0.565564 -3.027400 -1.585189 -1.000000 -0.000000 0.000000
-0.565564 -2.194067 -1.585189 -1.000000 -0.000000 0.000000
-0.565564 -2.194067 -2.418522 -1.000000 -0.000000 0.000000
-1.398897 -2.194067 -2.418522 0.000000 -1.000000 -0.000000
-0.565564 -2.194067 -2.418522 0.000000 -1.000000 -0.000000
-0.565564 -2.194067 -1.585189 0.000000 -1.000000 -0.000000
-1.398897 -2.194067 -1.585189 0.000000 -1.000000 -0.000000
-0.565564 -3.027400 -0.751855 -1.000000 -0.000000 0.000000
-0.565564 -3.027400 0.081478 -1.000000 -0.000000 0.000000
-0.565564 -2.194067 0.081478 -1.000000 -0.000000 0.000000
-0.565564 -2.194067 -0.751855 -1.000000 -0.000000 0.000000
-1.398897 -2.194067 -0.751855 0.000000 -1.000000 -0.000000
-0.565564 -2.194067 -0.751855 0.000000 -1.000000 -0.000000
-0.565564 -2.194067 0.081478 0.000000 -1.000000 -0.000000
-1.398897 -2.194067 0.081478 0.000000 -1.000000 -0.000000
-0.565564 -1.360733 -2.418522 -1.000000 -0.000000 0.000000
-0.565564 -1.360733 -1.585189 -1.000000 -0.000000 0.000000
-0.565564 -0.527400 -1.585189 -1.000000 -0.000000 0.000000
-0.565564 -0.527400 -2.418522 -1.000000 -0.000000 0.000000
-1.398897 -1.360733 -1.585189 0.000000 1.000000 -0.000000
-0.565564 -1.360733 -1.585189 0.000000 1.000000 -0.000000
-0.565564 -1.360733 -2.418522 0.000000 1.000000 -0.000000
-1.398897 -1.360733 -2.418522 0.000000 1.000000 -0.000000
-0.565564 -1.360733 -0.751855 -1.000000 -0.000000 0.000000
-0.565564 -1.360733 0.081478 -1.000000 -0.000000 0.000000
-0.565564 -0.527400 0.081478 -1.000000 -0.000000 0.000000
-0.565564 -0.527400 -0.751855 -1.000000 -0.000000 0.000000
-1.398897 -1.360733 0.081478 0.000000 1.000000 -0.000000
-0.565564 -1.360733 0.081478 0.000000 1.000000 -0.000000
-0.565564 -1.360733 -0.751855 0.000000 1.000000 -0.000000
-1.398897 -1.360733 -0.751855 0.000000 1.000000 -0.000000
0.267769 -2.194067 -2.418522 1.000000 -0.000000 0.000000
0.267769 -2.194067 -1.585189 1.000000 -0.000000 0.000000
0.267769 -3.027400 -1.585189 1.000000 -0.000000 0.000000
0.267769 -3.027400 -2.418522 1.000000 -0.000000 0.000000
0.267769 -2.194067 -2.418522 0.000000 -1.000000 -0.000000
1.101103 -2.194067 -2.418522 0.000000 -1.000000 -0.000000
1.101103 -2.194067 -1.585189 0.000000 -1.000000 -0.000000
0.267769 -2.194067 -1.585189 0.000000 -1.000000 -0.000000
0.267769 -2.194067 -0.751855 1.000000 -0.000000 0.000000
0.267769 -2.194067 0.081478 1.000000 -0.000000 0.000000
0.267769 -3.027400 0.081478 1.000000 -0.000000 0.000000
0.267769 -3.027400 -0.751855 1.000000 -0.000000 0.000000
0.267769 -2.194067 -0.751855 0.000000 -1.000000 -0.000000
1.101103 -2.194067 -0.751855 0.000000 -1.000000 -0.000000
1.101103 -2.194067 0.081478 0.000000 -1.000000 -0.000000
0.267769 -2.194067 0.081478 0.000000 -1.000000 -0.000000
0.267769 -0.527400 -2.418522 1.000000 -0.000000 0.000000
0.267769 -0.527400 -1.585189 1.000000 -0.000000 0.000000
0.267769 -1.360733 -1.585189 1.000000 -0.000000 0.000000
0.267769 -1.360733 -2.418522 1.000000 -0.000000 0.000000
0.267769 -1.360733 -1.585189 0.000000 1.000000 -0.000000
1.101103 -1.360733 -1.585189 0.000000 1.000000 -0.000000
1.101103 -1.360733 -2.418522 0.000000 1.000000 -0.000000
0.267769 -1.360733 -2.418522 0.000000 1.000000 -0.000000
0.267769 -0.527400 -0.751855 1.000000 -0.000000 0.000000
0.267769 -0.527400 0.081478 1.000000 -0.000000 0.000000
0.267769 -1.360733 0.081478 1.000000 -0.000000 0.000000
0.267769 -1.360733 -0.751855 1.000000 -0.000000 0.000000
0.267769 -1.360733 0.081478 0.000000 1.000000 -0.000000
1.101103 -1.360733 0.081478 0.000000 1.000000 -0.000000
1.101103 -1.360733 -0.751855 0.000000 1.000000 -0.000000
0.267769 -1.360733 -0.751855 0.000000 1.000000 -0.000000
-0.565564 -3.027400 -2.418522 0.000000 -1.000000 -0.000000
0.267769 -3.027400 -2.418522 0.000000 -1.000000 -0.000000
0.267769 -3.027400 -1.585189 0.000000 -1.000000 -0.000000
-0.565564 -3.027400 -1.585189 0.000000 -1.000000 -0.000000
-0.565564 -3.027400 -2.418522 -0.000000 0.000000 -1.000000
-0.565564 -2.194067 -2.418522 -0.000000 0.000000 -1.000000
0.267769 -2.194067 -2.418522 -0.000000 0.000000 -1.000000
0.267769 -3.027400 -2.418522 -0.000000 0.000000 -1.000000
-0.565564 -3.027400 -0.751855 0.000000 -1.000000 -0.000000
0.267769 -3.027400 -0.751855 0.000000 -1.000000 -0.000000
0.267769 -3.027400 0.081478 0.000000 -1.000000 -0.000000
-0.565564 -3.027400 0.081478 0.000000 -1.000000 -0.000000
0.267769 -3.027400 0.081478 -0.000000 0.000000 1.000000
0.267769 -2.194067 0.081478 -0.000000 0.000000 1.000000
-0.565564 -2.194067 0.081478 -0.000000 0.000000 1.000000
-0.565564 -3.027400 0.081478 -0.000000 0.000000 1.000000
-0.565564 -0.527400 -1.585189 0.000000 1.000000 -0.000000
0.267769 -0.527400 -1.585189 0.000000 1.000000 -0.000000
0.267769 -0.527400 -2.418522 0.000000 1.000000 -0.000000
-0.565564 -0.527400 -2.418522 0.000000 1.000000 -0.000000
-0.565564 -1.360733 -2.418522 -0.000000 0.000000 -1.000000
-0.565564 -0.527400 -2.418522 -0.000000 0.000000 -1.000000
0.267769 -0.527400 -2.418522 -0.000000 0.000000 -1.000000
0.267769 -1.360733 -2.418522 -0.000000 0.000000 -1.000000
-0.565564 -0.527400 0.081478 0.000000 1.000000 -0.000000
0.267769 -0.527400 0.081478 0.000000 1.000000 -0.000000
0.267769 -0.527400 -0.751855 0.000000 1.000000 -0.000000
-0.565564 -0.527400 -0.751855 0.000000 1.000000 -0.000000
0.267769 -1.360733 0.081478 -0.000000 0.000000 1.000000
0.267769 -0.527400 0.081478 -0.000000 0.000000 1.000000
-0.565564 -0.527400 0.081478 -0.000000 0.000000 1.000000
-0.565564 -1.360733 0.081478 -0.000000 0.000000 1.000000
-1.398897 -2.194067 -2.418522 -1.000000 -0.000000 0.000000
-1.398897 -2.194067 -1.585189 -1.000000 -0.000000 0.000000
-1.398897 -1.360733 -1.585189 -1.000000 -0.000000 0.000000
-1.398897 -1.360733 -2.418522 -1.000000 -0.000000 0.000000
-1.398897 -2.194067 -2.418522 -0.000000 0.000000 -1.000000
-1.398897 -1.360733 -2.418522 -0.000000 0.000000 -1.000000
1.101103 -1.360733 -2.418522 1.000000 -0.000000 0.000000
1.101103 -1.360733 -1.585189 1.000000 -0.000000 0.000000
1.101103 -2.194067 -1.585189 1.000000 -0.000000 0.000000
1.101103 -2.194067 -2.418522 1.000000 -0.000000 0.000000
1.101103 -1.360733 -2.418522 -0.000000 0.000000 -1.000000
1.101103 -2.194067 -2.418522 -0.000000 0.000000 -1.000000
-1.398897 -2.194067 -0.751855 -1.000000 -0.000000 0.000000
-1.398897 -2.194067 0.081478 -1.000000 -0.000000 0.000000
-1.398897 -1.360733 0.081478 -1.000000 -0.000000 0.000000
-1.398897 -1.360733 -0.751855 -1.000000 -0.000000 0.000000
-1.398897 -1.360733 0.081478 -0.000000 0.000000 1.000000
-1.398897 -2.194067 0.081478 -0.000000 0.000000 1.000000
1.101103 -1.360733 -0.751855 1.000000 -0.000000 0.000000
1.101103 -1.360733 0.081478 1.000000 -0.000000 0.000000
1.101103 -2.194067 0.081478 1.000000 -0.000000 0.000000
1.101103 -2.194067 -0.751855 1.000000 -0.000000 0.000000
1.101103 -2.194067 0.081478 -0.000000 0.000000 1.000000
1.101103 -1.360733 0.081478 -0.000000 0.000000 1.000000
4 0 1 2 3
4 4 5 6 7
4 8 9 10 11
4 12 13 14 15
4 16 17 18 19
4 20 21 22 23
4 24 25 26 27
4 28 29 30 31
4 32 33 34 35
4 36 37 38 39
4 40 41 42 43
4 44 45 46 47
4 48 49 50 51
4 52 53 54 55
4 56 57 58 59
4 60 61 62 63
4 64 65 66 67
4 68 69 70 71
4 72 73 74 75
4 76 77 78 79
4 80 81 82 83
4 84 85 86 87
4 88 89 90 91
4 92 93 94 95
4 96 97 98 99
4 100 101 84 69
4 102 103 104 105
4 70 87 106 107
4 108 109 110 111
4 78 95 112 113
4 114 115 116 117
4 118 119 92 77
4 1 8 11 2
4 7 6 13 12
4 17 24 27 18
4 31 30 21 20
4 33 40 43 34
4 39 38 45 44
4 49 56 59 50
4 63 62 53 52
4 97 108 111 98
4 103 114 117 104
4 67 66 73 72
4 91 90 81 80
4 69 84 87 70
4 77 92 95 78
