ply
format ascii 1.0
comment Created by Blender 2.71 (sub 0) - www.blender.org, source file: 'build_structure.blend'
element vertex 408
property float x
property float y
property float z
property float nx
property float ny
property float nz
element face 174
property list uchar uint vertex_indices
end_header
0.722124 -0.120618 -0.253103 -1.000000 -0.000000 0.000000
0.722124 -0.120618 0.055449 -1.000000 -0.000000 0.000000
0.722124 0.187935 0.055449 -1.000000 -0.000000 0.000000
0.722124 0.187935 -0.253103 -1.000000 -0.000000 0.000000
0.413572 0.187935 -0.253103 0.000000 -1.000000 -0.000000
0.722124 0.187935 -0.253103 0.000000 -1.000000 -0.000000
0.722124 0.187935 0.055449 0.000000 -1.000000 -0.000000
0.413572 0.187935 0.055449 0.000000 -1.000000 -0.000000
0.413572 -0.120618 0.055449 -0.000000 0.000000 -1.000000
0.413572 0.187935 0.055449 -0.000000 0.000000 -1.000000
0.722124 0.187935 0.055449 -0.000000 0.000000 -1.000000
0.722124 -0.120618 0.055449 -0.000000 0.000000 -1.000000
0.722124 -0.120618 0.364002 -1.000000 -0.000000 0.000000
0.722124 -0.120618 0.672554 -1.000000 -0.000000 0.000000
0.722124 0.187935 0.672554 -1.000000 -0.000000 0.000000
0.722124 0.187935 0.364002 -1.000000 -0.000000 0.000000
0.413572 0.187935 0.364002 0.000000 -1.000000 -0.000000
0.722124 0.187935 0.364002 0.000000 -1.000000 -0.000000
0.722124 0.187935 0.672554 0.000000 -1.000000 -0.000000
0.413572 0.187935 0.672554 0.000000 -1.000000 -0.000000
0.722124 -0.120618 0.364002 -0.000000 0.000000 1.000000
0.722124 0.187935 0.364002 -0.000000 0.000000 1.000000
0.413572 0.187935 0.364002 -0.000000 0.000000 1.000000
0.413572 -0.120618 0.364002 -0.000000 0.000000 1.000000
0.722124 0.496487 -0.253103 -1.000000 -0.000000 0.000000
0.722124 0.496487 0.055449 -1.000000 -0.000000 0.000000
0.722124 0.805039 0.055449 -1.000000 -0.000000 0.000000
0.722124 0.805039 -0.253103 -1.000000 -0.000000 0.000000
0.413572 0.496487 0.055449 0.000000 1.000000 -0.000000
0.722124 0.496487 0.055449 0.000000 1.000000 -0.000000
0.722124 0.496487 -0.253103 0.000000 1.000000 -0.000000
0.413572 0.496487 -0.253103 0.000000 1.000000 -0.000000
0.413572 0.496487 0.055449 -0.000000 0.000000 -1.000000
0.413572 0.805039 0.055449 -0.000000 0.000000 -1.000000
0.722124 0.805039 0.055449 -0.000000 0.000000 -1.000000
0.722124 0.496487 0.055449 -0.000000 0.000000 -1.000000
0.722124 0.496487 0.364002 -1.000000 -0.000000 0.000000
0.722124 0.496487 0.672554 -1.000000 -0.000000 0.000000
0.722124 0.805039 0.672554 -1.000000 -0.000000 0.000000
0.722124 0.805039 0.364002 -1.000000 -0.000000 0.000000
0.413572 0.496487 0.672554 0.000000 1.000000 -0.000000
0.722124 0.496487 0.672554 0.000000 1.000000 -0.000000
0.722124 0.496487 0.364002 0.000000 1.000000 -0.000000
0.413572 0.496487 0.364002 0.000000 1.000000 -0.000000
0.722124 0.496487 0.364002 -0.000000 0.000000 1.000000
0.722124 0.805039 0.364002 -0.000000 0.000000 1.000000
0.413572 0.805039 0.364002 -0.000000 0.000000 1.000000
0.413572 0.496487 0.364002 -0.000000 0.000000 1.000000
1.030676 -0.429170 -0.253103 0.000000 -1.000000 -0.000000
1.339228 -0.429170 -0.253103 0.000000 -1.000000 -0.000000
1.339228 -0.429170 0.055449 0.000000 -1.000000 -0.000000
1.030676 -0.429170 0.055449 0.000000 -1.000000 -0.000000
1.030676 -0.120618 -0.561655 -0.000000 0.000000 -1.000000
1.030676 0.187935 -0.561655 -0.000000 0.000000 -1.000000
1.339228 0.187935 -0.561655 -0.000000 0.000000 -1.000000
1.339228 -0.120618 -0.561655 -0.000000 0.000000 -1.000000
1.647781 -0.737722 -0.253103 -1.000000 -0.000000 0.000000
1.647781 -0.737722 0.055449 -1.000000 -0.000000 0.000000
1.647781 -0.429170 0.055449 -1.000000 -0.000000 0.000000
1.647781 -0.429170 -0.253103 -1.000000 -0.000000 0.000000
1.956333 -0.429170 -0.253103 1.000000 -0.000000 0.000000
1.956333 -0.429170 0.055449 1.000000 -0.000000 0.000000
1.956333 -0.737722 0.055449 1.000000 -0.000000 0.000000
1.956333 -0.737722 -0.253103 1.000000 -0.000000 0.000000
1.647781 -0.737722 -0.253103 0.000000 -1.000000 -0.000000
1.956333 -0.737722 -0.253103 0.000000 -1.000000 -0.000000
1.956333 -0.737722 0.055449 0.000000 -1.000000 -0.000000
1.647781 -0.737722 0.055449 0.000000 -1.000000 -0.000000
1.647781 -0.737722 -0.253103 -0.000000 0.000000 -1.000000
1.647781 -0.429170 -0.253103 -0.000000 0.000000 -1.000000
1.956333 -0.429170 -0.253103 -0.000000 0.000000 -1.000000
1.956333 -0.737722 -0.253103 -0.000000 0.000000 -1.000000
1.647781 -0.120618 -0.870207 -1.000000 -0.000000 0.000000
1.647781 -0.120618 -0.561655 -1.000000 -0.000000 0.000000
1.647781 0.187935 -0.561655 -1.000000 -0.000000 0.000000
1.647781 0.187935 -0.870207 -1.000000 -0.000000 0.000000
1.956333 0.187935 -0.870207 1.000000 -0.000000 0.000000
1.956333 0.187935 -0.561655 1.000000 -0.000000 0.000000
1.956333 -0.120618 -0.561655 1.000000 -0.000000 0.000000
1.956333 -0.120618 -0.870207 1.000000 -0.000000 0.000000
1.647781 -0.120618 -0.870207 0.000000 -1.000000 -0.000000
1.956333 -0.120618 -0.870207 0.000000 -1.000000 -0.000000
1.956333 -0.120618 -0.561655 0.000000 -1.000000 -0.000000
1.647781 -0.120618 -0.561655 0.000000 -1.000000 -0.000000
1.647781 -0.120618 -0.870207 -0.000000 0.000000 -1.000000
1.647781 0.187935 -0.870207 -0.000000 0.000000 -1.000000
1.956333 0.187935 -0.870207 -0.000000 0.000000 -1.000000
1.956333 -0.120618 -0.870207 -0.000000 0.000000 -1.000000
1.956333 0.187935 -0.253103 1.000000 -0.000000 0.000000
1.956333 0.187935 0.055449 1.000000 -0.000000 0.000000
1.956333 -0.120618 0.055449 1.000000 -0.000000 0.000000
1.956333 -0.120618 -0.253103 1.000000 -0.000000 0.000000
1.647781 -0.429170 -0.253103 0.000000 -1.000000 -0.000000
1.647781 -0.429170 0.055449 0.000000 -1.000000 -0.000000
1.647781 0.187935 -0.561655 -0.000000 0.000000 -1.000000
1.647781 -0.120618 -0.561655 -0.000000 0.000000 -1.000000
1.647781 -0.429170 -0.561655 -0.000000 0.000000 -1.000000
1.956333 -0.120618 -0.561655 -0.000000 0.000000 -1.000000
1.956333 -0.429170 -0.561655 -0.000000 0.000000 -1.000000
1.030676 -0.429170 -0.253103 -1.000000 -0.000000 0.000000
1.030676 -0.429170 0.055449 -1.000000 -0.000000 0.000000
1.030676 -0.120618 0.055449 -1.000000 -0.000000 0.000000
1.030676 -0.120618 -0.253103 -1.000000 -0.000000 0.000000
1.030676 -0.429170 -0.253103 -0.000000 0.000000 -1.000000
1.030676 -0.120618 -0.253103 -0.000000 0.000000 -1.000000
1.339228 -0.120618 -0.253103 -0.000000 0.000000 -1.000000
1.339228 -0.429170 -0.253103 -0.000000 0.000000 -1.000000
1.030676 -0.120618 -0.561655 -1.000000 -0.000000 0.000000
1.030676 0.187935 -0.253103 -1.000000 -0.000000 0.000000
1.030676 0.187935 -0.561655 -1.000000 -0.000000 0.000000
1.030676 -0.120618 -0.561655 0.000000 -1.000000 -0.000000
1.339228 -0.120618 -0.561655 0.000000 -1.000000 -0.000000
1.339228 -0.120618 -0.253103 0.000000 -1.000000 -0.000000
1.030676 -0.120618 -0.253103 0.000000 -1.000000 -0.000000
1.647781 -0.429170 -0.561655 0.000000 -1.000000 -0.000000
1.956333 -0.429170 -0.561655 0.000000 -1.000000 -0.000000
1.956333 -0.429170 -0.253103 0.000000 -1.000000 -0.000000
1.647781 -0.429170 -0.561655 -1.000000 -0.000000 0.000000
1.647781 -0.120618 -0.253103 -1.000000 -0.000000 0.000000
1.956333 -0.429170 -0.561655 1.000000 -0.000000 0.000000
1.647781 -0.120618 -0.253103 0.000000 -1.000000 -0.000000
1.647781 -0.120618 -0.253103 -0.000000 0.000000 -1.000000
1.030676 -0.429170 0.364002 0.000000 -1.000000 -0.000000
1.339228 -0.429170 0.364002 0.000000 -1.000000 -0.000000
1.339228 -0.429170 0.672554 0.000000 -1.000000 -0.000000
1.030676 -0.429170 0.672554 0.000000 -1.000000 -0.000000
1.339228 -0.120618 0.981106 -0.000000 0.000000 1.000000
1.339228 0.187935 0.981106 -0.000000 0.000000 1.000000
1.030676 0.187935 0.981106 -0.000000 0.000000 1.000000
1.030676 -0.120618 0.981106 -0.000000 0.000000 1.000000
1.647781 -0.737722 0.364002 -1.000000 -0.000000 0.000000
1.647781 -0.737722 0.672554 -1.000000 -0.000000 0.000000
1.647781 -0.429170 0.672554 -1.000000 -0.000000 0.000000
1.647781 -0.429170 0.364002 -1.000000 -0.000000 0.000000
1.956333 -0.429170 0.364002 1.000000 -0.000000 0.000000
1.956333 -0.429170 0.672554 1.000000 -0.000000 0.000000
1.956333 -0.737722 0.672554 1.000000 -0.000000 0.000000
1.956333 -0.737722 0.364002 1.000000 -0.000000 0.000000
1.647781 -0.737722 0.364002 0.000000 -1.000000 -0.000000
1.956333 -0.737722 0.364002 0.000000 -1.000000 -0.000000
1.956333 -0.737722 0.672554 0.000000 -1.000000 -0.000000
1.647781 -0.737722 0.672554 0.000000 -1.000000 -0.000000
1.956333 -0.737722 0.672554 -0.000000 0.000000 1.000000
1.956333 -0.429170 0.672554 -0.000000 0.000000 1.000000
1.647781 -0.429170 0.672554 -0.000000 0.000000 1.000000
1.647781 -0.737722 0.672554 -0.000000 0.000000 1.000000
1.956333 0.187935 0.364002 1.000000 -0.000000 0.000000
1.956333 0.187935 0.672554 1.000000 -0.000000 0.000000
1.956333 -0.120618 0.672554 1.000000 -0.000000 0.000000
1.956333 -0.120618 0.364002 1.000000 -0.000000 0.000000
1.647781 -0.120618 0.981106 -1.000000 -0.000000 0.000000
1.647781 -0.120618 1.289658 -1.000000 -0.000000 0.000000
1.647781 0.187935 1.289658 -1.000000 -0.000000 0.000000
1.647781 0.187935 0.981106 -1.000000 -0.000000 0.000000
1.956333 0.187935 0.981106 1.000000 -0.000000 0.000000
1.956333 0.187935 1.289658 1.000000 -0.000000 0.000000
1.956333 -0.120618 1.289658 1.000000 -0.000000 0.000000
1.956333 -0.120618 0.981106 1.000000 -0.000000 0.000000
1.647781 -0.120618 0.981106 0.000000 -1.000000 -0.000000
1.956333 -0.120618 0.981106 0.000000 -1.000000 -0.000000
1.956333 -0.120618 1.289658 0.000000 -1.000000 -0.000000
1.647781 -0.120618 1.289658 0.000000 -1.000000 -0.000000
1.956333 -0.120618 1.289658 -0.000000 0.000000 1.000000
1.956333 0.187935 1.289658 -0.000000 0.000000 1.000000
1.647781 0.187935 1.289658 -0.000000 0.000000 1.000000
1.647781 -0.120618 1.289658 -0.000000 0.000000 1.000000
1.647781 -0.429170 0.364002 0.000000 -1.000000 -0.000000
1.647781 -0.429170 0.672554 0.000000 -1.000000 -0.000000
1.647781 -0.120618 0.981106 -0.000000 0.000000 1.000000
1.647781 0.187935 0.981106 -0.000000 0.000000 1.000000
1.030676 -0.429170 0.364002 -1.000000 -0.000000 0.000000
1.030676 -0.429170 0.672554 -1.000000 -0.000000 0.000000
1.030676 -0.120618 0.672554 -1.000000 -0.000000 0.000000
1.030676 -0.120618 0.364002 -1.000000 -0.000000 0.000000
1.339228 -0.429170 0.672554 -0.000000 0.000000 1.000000
1.339228 -0.120618 0.672554 -0.000000 0.000000 1.000000
1.030676 -0.120618 0.672554 -0.000000 0.000000 1.000000
1.030676 -0.429170 0.672554 -0.000000 0.000000 1.000000
1.956333 -0.429170 0.981106 -0.000000 0.000000 1.000000
1.956333 -0.120618 0.981106 -0.000000 0.000000 1.000000
1.647781 -0.429170 0.981106 -0.000000 0.000000 1.000000
1.030676 -0.120618 0.981106 -1.000000 -0.000000 0.000000
1.030676 0.187935 0.981106 -1.000000 -0.000000 0.000000
1.030676 0.187935 0.672554 -1.000000 -0.000000 0.000000
1.030676 -0.120618 0.672554 0.000000 -1.000000 -0.000000
1.339228 -0.120618 0.672554 0.000000 -1.000000 -0.000000
1.339228 -0.120618 0.981106 0.000000 -1.000000 -0.000000
1.030676 -0.120618 0.981106 0.000000 -1.000000 -0.000000
1.956333 -0.429170 0.672554 0.000000 -1.000000 -0.000000
1.956333 -0.429170 0.981106 0.000000 -1.000000 -0.000000
1.647781 -0.429170 0.981106 0.000000 -1.000000 -0.000000
1.647781 -0.429170 0.981106 -1.000000 -0.000000 0.000000
1.647781 -0.120618 0.672554 -1.000000 -0.000000 0.000000
1.956333 -0.429170 0.981106 1.000000 -0.000000 0.000000
1.647781 -0.120618 0.672554 0.000000 -1.000000 -0.000000
1.647781 -0.120618 0.672554 -0.000000 0.000000 1.000000
1.030676 0.496487 -0.561655 -0.000000 0.000000 -1.000000
1.030676 0.805039 -0.561655 -0.000000 0.000000 -1.000000
1.339228 0.805039 -0.561655 -0.000000 0.000000 -1.000000
1.339228 0.496487 -0.561655 -0.000000 0.000000 -1.000000
1.030676 1.113591 0.055449 0.000000 1.000000 -0.000000
1.339228 1.113591 0.055449 0.000000 1.000000 -0.000000
1.339228 1.113591 -0.253103 0.000000 1.000000 -0.000000
1.030676 1.113591 -0.253103 0.000000 1.000000 -0.000000
1.647781 0.496487 -0.870207 -1.000000 -0.000000 0.000000
1.647781 0.496487 -0.561655 -1.000000 -0.000000 0.000000
1.647781 0.805039 -0.561655 -1.000000 -0.000000 0.000000
1.647781 0.805039 -0.870207 -1.000000 -0.000000 0.000000
1.956333 0.805039 -0.870207 1.000000 -0.000000 0.000000
1.956333 0.805039 -0.561655 1.000000 -0.000000 0.000000
1.956333 0.496487 -0.561655 1.000000 -0.000000 0.000000
1.956333 0.496487 -0.870207 1.000000 -0.000000 0.000000
1.647781 0.805039 -0.561655 0.000000 1.000000 -0.000000
1.956333 0.805039 -0.561655 0.000000 1.000000 -0.000000
1.956333 0.805039 -0.870207 0.000000 1.000000 -0.000000
1.647781 0.805039 -0.870207 0.000000 1.000000 -0.000000
1.647781 0.496487 -0.870207 -0.000000 0.000000 -1.000000
1.647781 0.805039 -0.870207 -0.000000 0.000000 -1.000000
1.956333 0.805039 -0.870207 -0.000000 0.000000 -1.000000
1.956333 0.496487 -0.870207 -0.000000 0.000000 -1.000000
1.956333 0.805039 -0.253103 1.000000 -0.000000 0.000000
1.956333 0.805039 0.055449 1.000000 -0.000000 0.000000
1.956333 0.496487 0.055449 1.000000 -0.000000 0.000000
1.956333 0.496487 -0.253103 1.000000 -0.000000 0.000000
1.647781 1.113591 -0.253103 -1.000000 -0.000000 0.000000
1.647781 1.113591 0.055449 -1.000000 -0.000000 0.000000
1.647781 1.422144 0.055449 -1.000000 -0.000000 0.000000
1.647781 1.422144 -0.253103 -1.000000 -0.000000 0.000000
1.956333 1.422144 -0.253103 1.000000 -0.000000 0.000000
1.956333 1.422144 0.055449 1.000000 -0.000000 0.000000
1.956333 1.113591 0.055449 1.000000 -0.000000 0.000000
1.956333 1.113591 -0.253103 1.000000 -0.000000 0.000000
1.647781 1.422144 0.055449 0.000000 1.000000 -0.000000
1.956333 1.422144 0.055449 0.000000 1.000000 -0.000000
1.956333 1.422144 -0.253103 0.000000 1.000000 -0.000000
1.647781 1.422144 -0.253103 0.000000 1.000000 -0.000000
1.647781 1.113591 -0.253103 -0.000000 0.000000 -1.000000
1.647781 1.422144 -0.253103 -0.000000 0.000000 -1.000000
1.956333 1.422144 -0.253103 -0.000000 0.000000 -1.000000
1.956333 1.113591 -0.253103 -0.000000 0.000000 -1.000000
1.647781 0.805039 -0.561655 -0.000000 0.000000 -1.000000
1.647781 0.496487 -0.561655 -0.000000 0.000000 -1.000000
1.647781 1.113591 0.055449 0.000000 1.000000 -0.000000
1.647781 1.113591 -0.253103 0.000000 1.000000 -0.000000
1.647781 1.113591 -0.561655 -0.000000 0.000000 -1.000000
1.956333 1.113591 -0.561655 -0.000000 0.000000 -1.000000
1.956333 0.805039 -0.561655 -0.000000 0.000000 -1.000000
1.030676 0.805039 -0.253103 -1.000000 -0.000000 0.000000
1.030676 0.805039 0.055449 -1.000000 -0.000000 0.000000
1.030676 1.113591 0.055449 -1.000000 -0.000000 0.000000
1.030676 1.113591 -0.253103 -1.000000 -0.000000 0.000000
1.030676 0.805039 -0.253103 -0.000000 0.000000 -1.000000
1.030676 1.113591 -0.253103 -0.000000 0.000000 -1.000000
1.339228 1.113591 -0.253103 -0.000000 0.000000 -1.000000
1.339228 0.805039 -0.253103 -0.000000 0.000000 -1.000000
1.030676 0.496487 -0.561655 -1.000000 -0.000000 0.000000
1.030676 0.496487 -0.253103 -1.000000 -0.000000 0.000000
1.030676 0.805039 -0.561655 -1.000000 -0.000000 0.000000
1.030676 0.805039 -0.253103 0.000000 1.000000 -0.000000
1.339228 0.805039 -0.253103 0.000000 1.000000 -0.000000
1.339228 0.805039 -0.561655 0.000000 1.000000 -0.000000
1.030676 0.805039 -0.561655 0.000000 1.000000 -0.000000
1.956333 1.113591 -0.253103 0.000000 1.000000 -0.000000
1.956333 1.113591 -0.561655 0.000000 1.000000 -0.000000
1.647781 1.113591 -0.561655 0.000000 1.000000 -0.000000
1.647781 0.805039 -0.253103 -1.000000 -0.000000 0.000000
1.647781 1.113591 -0.561655 -1.000000 -0.000000 0.000000
1.956333 1.113591 -0.561655 1.000000 -0.000000 0.000000
1.647781 0.805039 -0.253103 0.000000 1.000000 -0.000000
1.647781 0.805039 -0.253103 -0.000000 0.000000 -1.000000
1.339228 0.496487 0.981106 -0.000000 0.000000 1.000000
1.339228 0.805039 0.981106 -0.000000 0.000000 1.000000
1.030676 0.805039 0.981106 -0.000000 0.000000 1.000000
1.030676 0.496487 0.981106 -0.000000 0.000000 1.000000
1.030676 1.113591 0.672554 0.000000 1.000000 -0.000000
1.339228 1.113591 0.672554 0.000000 1.000000 -0.000000
1.339228 1.113591 0.364002 0.000000 1.000000 -0.000000
1.030676 1.113591 0.364002 0.000000 1.000000 -0.000000
1.956333 0.805039 0.364002 1.000000 -0.000000 0.000000
1.956333 0.805039 0.672554 1.000000 -0.000000 0.000000
1.956333 0.496487 0.672554 1.000000 -0.000000 0.000000
1.956333 0.496487 0.364002 1.000000 -0.000000 0.000000
1.647781 0.496487 0.981106 -1.000000 -0.000000 0.000000
1.647781 0.496487 1.289658 -1.000000 -0.000000 0.000000
1.647781 0.805039 1.289658 -1.000000 -0.000000 0.000000
1.647781 0.805039 0.981106 -1.000000 -0.000000 0.000000
1.956333 0.805039 0.981106 1.000000 -0.000000 0.000000
1.956333 0.805039 1.289658 1.000000 -0.000000 0.000000
1.956333 0.496487 1.289658 1.000000 -0.000000 0.000000
1.956333 0.496487 0.981106 1.000000 -0.000000 0.000000
1.647781 0.805039 1.289658 0.000000 1.000000 -0.000000
1.956333 0.805039 1.289658 0.000000 1.000000 -0.000000
1.956333 0.805039 0.981106 0.000000 1.000000 -0.000000
1.647781 0.805039 0.981106 0.000000 1.000000 -0.000000
1.956333 0.496487 1.289658 -0.000000 0.000000 1.000000
1.956333 0.805039 1.289658 -0.000000 0.000000 1.000000
1.647781 0.805039 1.289658 -0.000000 0.000000 1.000000
1.647781 0.496487 1.289658 -0.000000 0.000000 1.000000
1.647781 1.113591 0.364002 -1.000000 -0.000000 0.000000
1.647781 1.113591 0.672554 -1.000000 -0.000000 0.000000
1.647781 1.422144 0.672554 -1.000000 -0.000000 0.000000
1.647781 1.422144 0.364002 -1.000000 -0.000000 0.000000
1.956333 1.422144 0.364002 1.000000 -0.000000 0.000000
1.956333 1.422144 0.672554 1.000000 -0.000000 0.000000
1.956333 1.113591 0.672554 1.000000 -0.000000 0.000000
1.956333 1.113591 0.364002 1.000000 -0.000000 0.000000
1.647781 1.422144 0.672554 0.000000 1.000000 -0.000000
1.956333 1.422144 0.672554 0.000000 1.000000 -0.000000
1.956333 1.422144 0.364002 0.000000 1.000000 -0.000000
1.647781 1.422144 0.364002 0.000000 1.000000 -0.000000
1.956333 1.113591 0.672554 -0.000000 0.000000 1.000000
1.956333 1.422144 0.672554 -0.000000 0.000000 1.000000
1.647781 1.422144 0.672554 -0.000000 0.000000 1.000000
1.647781 1.113591 0.672554 -0.000000 0.000000 1.000000
1.647781 0.496487 0.981106 -0.000000 0.000000 1.000000
1.647781 0.805039 0.981106 -0.000000 0.000000 1.000000
1.647781 1.113591 0.672554 0.000000 1.000000 -0.000000
1.647781 1.113591 0.364002 0.000000 1.000000 -0.000000
1.030676 0.805039 0.364002 -1.000000 -0.000000 0.000000
1.030676 0.805039 0.672554 -1.000000 -0.000000 0.000000
1.030676 1.113591 0.672554 -1.000000 -0.000000 0.000000
1.030676 1.113591 0.364002 -1.000000 -0.000000 0.000000
1.339228 0.805039 0.672554 -0.000000 0.000000 1.000000
1.339228 1.113591 0.672554 -0.000000 0.000000 1.000000
1.030676 1.113591 0.672554 -0.000000 0.000000 1.000000
1.030676 0.805039 0.672554 -0.000000 0.000000 1.000000
1.956333 0.805039 0.981106 -0.000000 0.000000 1.000000
1.956333 1.113591 0.981106 -0.000000 0.000000 1.000000
1.647781 1.113591 0.981106 -0.000000 0.000000 1.000000
1.030676 0.496487 0.672554 -1.000000 -0.000000 0.000000
1.030676 0.496487 0.981106 -1.000000 -0.000000 0.000000
1.030676 0.805039 0.981106 -1.000000 -0.000000 0.000000
1.030676 0.805039 0.981106 0.000000 1.000000 -0.000000
1.339228 0.805039 0.981106 0.000000 1.000000 -0.000000
1.339228 0.805039 0.672554 0.000000 1.000000 -0.000000
1.030676 0.805039 0.672554 0.000000 1.000000 -0.000000
1.647781 1.113591 0.981106 0.000000 1.000000 -0.000000
1.956333 1.113591 0.981106 0.000000 1.000000 -0.000000
1.956333 1.113591 0.672554 0.000000 1.000000 -0.000000
1.647781 0.805039 0.672554 -1.000000 -0.000000 0.000000
1.647781 1.113591 0.981106 -1.000000 -0.000000 0.000000
1.956333 1.113591 0.981106 1.000000 -0.000000 0.000000
1.647781 0.805039 0.672554 0.000000 1.000000 -0.000000
1.647781 0.805039 0.672554 -0.000000 0.000000 1.000000
0.722124 -0.120618 -0.253103 0.000000 -1.000000 -0.000000
1.030676 -0.120618 0.055449 0.000000 -1.000000 -0.000000
0.722124 -0.120618 0.055449 0.000000 -1.000000 -0.000000
0.722124 -0.120618 -0.253103 -0.000000 0.000000 -1.000000
0.722124 0.187935 -0.253103 -0.000000 0.000000 -1.000000
1.030676 0.187935 -0.253103 -0.000000 0.000000 -1.000000
0.722124 -0.120618 0.364002 0.000000 -1.000000 -0.000000
1.030676 -0.120618 0.364002 0.000000 -1.000000 -0.000000
0.722124 -0.120618 0.672554 0.000000 -1.000000 -0.000000
1.030676 0.187935 0.672554 -0.000000 0.000000 1.000000
0.722124 0.187935 0.672554 -0.000000 0.000000 1.000000
0.722124 -0.120618 0.672554 -0.000000 0.000000 1.000000
0.722124 0.805039 0.055449 0.000000 1.000000 -0.000000
1.030676 0.805039 0.055449 0.000000 1.000000 -0.000000
0.722124 0.805039 -0.253103 0.000000 1.000000 -0.000000
0.722124 0.496487 -0.253103 -0.000000 0.000000 -1.000000
0.722124 0.805039 -0.253103 -0.000000 0.000000 -1.000000
1.030676 0.496487 -0.253103 -0.000000 0.000000 -1.000000
0.722124 0.805039 0.672554 0.000000 1.000000 -0.000000
1.030676 0.805039 0.364002 0.000000 1.000000 -0.000000
0.722124 0.805039 0.364002 0.000000 1.000000 -0.000000
1.030676 0.496487 0.672554 -0.000000 0.000000 1.000000
0.722124 0.805039 0.672554 -0.000000 0.000000 1.000000
0.722124 0.496487 0.672554 -0.000000 0.000000 1.000000
-0.203533 0.187935 0.055449 -0.000000 0.000000 -1.000000
-0.203533 0.496487 0.055449 -0.000000 0.000000 -1.000000
0.105019 0.496487 0.055449 -0.000000 0.000000 -1.000000
0.105019 0.187935 0.055449 -0.000000 0.000000 -1.000000
0.413572 0.187935 -0.253103 -1.000000 -0.000000 0.000000
0.413572 0.187935 0.055449 -1.000000 -0.000000 0.000000
0.413572 0.496487 0.055449 -1.000000 -0.000000 0.000000
0.413572 0.496487 -0.253103 -1.000000 -0.000000 0.000000
0.413572 0.187935 -0.253103 -0.000000 0.000000 -1.000000
0.413572 0.496487 -0.253103 -0.000000 0.000000 -1.000000
0.105019 0.187935 0.364002 -0.000000 0.000000 1.000000
0.105019 0.496487 0.364002 -0.000000 0.000000 1.000000
-0.203533 0.496487 0.364002 -0.000000 0.000000 1.000000
-0.203533 0.187935 0.364002 -0.000000 0.000000 1.000000
0.413572 0.187935 0.364002 -1.000000 -0.000000 0.000000
0.413572 0.187935 0.672554 -1.000000 -0.000000 0.000000
0.413572 0.496487 0.672554 -1.000000 -0.000000 0.000000
0.413572 0.496487 0.364002 -1.000000 -0.000000 0.000000
0.413572 0.496487 0.672554 -0.000000 0.000000 1.000000
0.413572 0.187935 0.672554 -0.000000 0.000000 1.000000
-0.203533 0.187935 0.055449 0.000000 -1.000000 -0.000000
0.105019 0.187935 0.055449 0.000000 -1.000000 -0.000000
0.105019 0.187935 0.364002 0.000000 -1.000000 -0.000000
-0.203533 0.187935 0.364002 0.000000 -1.000000 -0.000000
0.413572 -0.120618 0.055449 -1.000000 -0.000000 0.000000
0.413572 -0.120618 0.364002 -1.000000 -0.000000 0.000000
0.413572 -0.120618 0.055449 0.000000 -1.000000 -0.000000
0.413572 -0.120618 0.364002 0.000000 -1.000000 -0.000000
-0.203533 0.496487 0.364002 0.000000 1.000000 -0.000000
0.105019 0.496487 0.364002 0.000000 1.000000 -0.000000
0.105019 0.496487 0.055449 0.000000 1.000000 -0.000000
-0.203533 0.496487 0.055449 0.000000 1.000000 -0.000000
0.413572 0.805039 0.364002 -1.000000 -0.000000 0.000000
0.413572 0.805039 0.055449 -1.000000 -0.000000 0.000000
0.413572 0.805039 0.364002 0.000000 1.000000 -0.000000
0.413572 0.805039 0.055449 0.000000 1.000000 -0.000000
-0.203533 0.187935 0.055449 -1.000000 -0.000000 0.000000
-0.203533 0.187935 0.364002 -1.000000 -0.000000 0.000000
-0.203533 0.496487 0.364002 -1.000000 -0.000000 0.000000
-0.203533 0.496487 0.055449 -1.000000 -0.000000 0.000000
4 0 1 2 3
4 4 5 6 7
4 8 9 10 11
4 12 13 14 15
4 16 17 18 19
4 20 21 22 23
4 24 25 26 27
4 28 29 30 31
4 32 33 34 35
4 36 37 38 39
4 40 41 42 43
4 44 45 46 47
4 48 49 50 51
4 52 53 54 55
4 56 57 58 59
4 60 61 62 63
4 64 65 66 67
4 68 69 70 71
4 72 73 74 75
4 76 77 78 79
4 80 81 82 83
4 84 85 86 87
4 88 89 90 91
4 49 92 93 50
4 55 54 94 95
4 96 95 97 98
4 99 100 101 102
4 103 104 105 106
4 91 90 61 60
4 107 102 108 109
4 110 111 112 113
4 114 115 116 92
4 77 88 91 78
4 117 59 118 73
4 78 91 60 119
4 111 83 120 112
4 106 105 121 69
4 122 123 124 125
4 126 127 128 129
4 130 131 132 133
4 134 135 136 137
4 138 139 140 141
4 142 143 144 145
4 146 147 148 149
4 150 151 152 153
4 154 155 156 157
4 158 159 160 161
4 162 163 164 165
4 123 166 167 124
4 168 169 127 126
4 170 171 172 173
4 174 175 176 177
4 149 148 135 134
4 178 179 168 180
4 172 181 182 183
4 184 185 186 187
4 167 188 189 190
4 147 154 157 148
4 132 191 150 192
4 148 157 193 135
4 185 194 158 186
4 144 195 175 174
4 196 197 198 199
4 200 201 202 203
4 204 205 206 207
4 208 209 210 211
4 212 213 214 215
4 216 217 218 219
4 220 221 222 223
4 224 225 226 227
4 228 229 230 231
4 232 233 234 235
4 236 237 238 239
4 199 198 240 241
4 201 242 243 202
4 240 244 245 246
4 247 248 249 250
4 251 252 253 254
4 231 230 221 220
4 255 256 247 257
4 258 259 260 261
4 209 220 223 210
4 243 262 263 264
4 206 265 224 266
4 267 231 220 209
4 259 268 212 260
4 254 253 236 269
4 270 271 272 273
4 274 275 276 277
4 278 279 280 281
4 282 283 284 285
4 286 287 288 289
4 290 291 292 293
4 294 295 296 297
4 298 299 300 301
4 302 303 304 305
4 306 307 308 309
4 310 311 312 313
4 314 315 271 270
4 275 316 317 276
4 318 319 320 321
4 322 323 324 325
4 305 304 279 278
4 326 327 328 315
4 329 330 331 319
4 332 333 334 335
4 279 286 289 280
4 336 337 338 316
4 339 285 340 299
4 304 341 286 279
4 333 293 342 334
4 343 313 323 322
4 344 113 345 346
4 347 348 349 104
4 350 351 184 352
4 176 353 354 355
4 356 357 258 358
4 359 360 251 361
4 362 335 363 364
4 365 325 366 367
4 368 369 370 371
4 372 373 374 375
4 376 377 359 348
4 371 370 32 9
4 53 196 199 54
4 75 74 205 204
4 211 210 77 76
4 85 216 219 86
4 223 222 89 88
4 109 108 256 255
4 210 223 88 77
4 54 199 241 94
4 378 379 380 381
4 382 383 384 385
4 354 367 386 387
4 22 47 379 378
4 281 280 147 146
4 127 270 273 128
4 153 152 283 282
4 289 288 155 154
4 163 294 297 164
4 183 182 330 329
4 280 289 154 147
4 169 314 270 127
4 388 389 390 391
4 392 393 382 373
4 394 346 350 395
4 389 7 16 390
4 396 397 398 399
4 374 385 400 401
4 402 364 356 403
4 397 43 28 398
4 51 50 123 122
4 57 130 133 58
4 61 134 137 62
4 67 66 139 138
4 89 146 149 90
4 100 170 173 101
4 90 149 134 61
4 50 93 166 123
4 277 276 201 200
4 221 278 281 222
4 225 298 301 226
4 229 302 305 230
4 309 308 233 232
4 248 318 321 249
4 230 305 278 221
4 276 317 242 201
4 404 405 406 407
4 222 281 146 89
4 346 345 351 350
4 364 363 357 356
4 348 359 361 349
4 353 365 367 354
