ply
format ascii 1.0
comment Created by Blender 2.71 (sub 0) - www.blender.org, source file: 'build_structure.blend'
element vertex 92
property float x
property float y
property float z
property float nx
property float ny
property float nz
element face 30
property list uchar uint vertex_indices
end_header
0.416667 -0.416667 -0.138889 0.000001 0.000000 -1.000000
0.138889 -0.416667 -0.138889 0.000001 0.000000 -1.000000
0.138889 -0.138889 -0.138889 0.000001 0.000000 -1.000000
0.416667 -0.138889 -0.138889 0.000001 0.000000 -1.000000
0.416667 -0.138889 -0.416666 0.000000 -1.000000 0.000000
0.416667 -0.138889 -0.138889 0.000000 -1.000000 0.000000
0.138889 -0.138889 -0.138889 0.000000 -1.000000 0.000000
0.138889 -0.138889 -0.416667 0.000000 -1.000000 0.000000
0.416667 0.138889 -0.138889 0.000001 0.000000 -1.000000
0.138889 0.138889 -0.138889 0.000001 0.000000 -1.000000
0.138889 0.416667 -0.138889 0.000001 0.000000 -1.000000
0.416667 0.416667 -0.138889 0.000001 0.000000 -1.000000
0.138889 0.138889 -0.416667 0.000000 1.000000 0.000000
0.138889 0.138889 -0.138889 0.000000 1.000000 0.000000
0.416667 0.138889 -0.138889 0.000000 1.000000 0.000000
0.416667 0.138889 -0.416666 0.000000 1.000000 0.000000
0.416667 -0.138889 0.138889 -0.000001 0.000000 1.000000
0.138889 -0.138889 0.138889 -0.000001 0.000000 1.000000
0.138889 -0.416667 0.138889 -0.000001 0.000000 1.000000
0.416667 -0.416667 0.138889 -0.000001 0.000000 1.000000
0.416667 -0.138889 0.138889 0.000000 -1.000000 0.000000
0.416666 -0.138889 0.416667 0.000000 -1.000000 0.000000
0.138889 -0.138889 0.416667 0.000000 -1.000000 0.000000
0.138889 -0.138889 0.138889 0.000000 -1.000000 0.000000
0.416667 0.416667 0.138889 -0.000001 0.000000 1.000000
0.138889 0.416667 0.138889 -0.000001 0.000000 1.000000
0.138889 0.138889 0.138889 -0.000001 0.000000 1.000000
0.416667 0.138889 0.138889 -0.000001 0.000000 1.000000
0.138889 0.138889 0.138889 0.000000 1.000000 0.000000
0.138889 0.138889 0.416667 0.000000 1.000000 0.000000
0.416666 0.138889 0.416667 0.000000 1.000000 0.000000
0.416667 0.138889 0.138889 0.000000 1.000000 0.000000
0.416667 -0.416667 -0.138889 0.000000 -1.000000 0.000000
0.416667 -0.416667 0.138889 0.000000 -1.000000 0.000000
0.138889 -0.416667 0.138889 0.000000 -1.000000 0.000000
0.138889 -0.416667 -0.138889 0.000000 -1.000000 0.000000
0.416667 -0.416667 -0.138889 1.000000 0.000000 0.000001
0.416667 -0.138889 -0.138889 1.000000 0.000000 0.000001
0.416667 -0.138889 0.138889 1.000000 0.000000 0.000001
0.416667 -0.416667 0.138889 1.000000 0.000000 0.000001
0.138889 -0.416667 0.138889 -1.000000 0.000000 -0.000001
0.138889 -0.138889 0.138889 -1.000000 0.000000 -0.000001
0.138889 -0.138889 -0.138889 -1.000000 0.000000 -0.000001
0.138889 -0.416667 -0.138889 -1.000000 0.000000 -0.000001
-0.138889 -0.138889 -0.138889 0.000000 -1.000000 0.000000
-0.138889 -0.138889 0.138889 0.000000 -1.000000 0.000000
-0.416667 -0.138889 0.138889 0.000000 -1.000000 0.000000
-0.416667 -0.138889 -0.138889 0.000000 -1.000000 0.000000
0.138889 0.416667 -0.138889 0.000000 1.000000 0.000000
0.138889 0.416667 0.138889 0.000000 1.000000 0.000000
0.416667 0.416667 0.138889 0.000000 1.000000 0.000000
0.416667 0.416667 -0.138889 0.000000 1.000000 0.000000
0.416667 0.138889 -0.138889 1.000000 0.000000 0.000001
0.416667 0.416667 -0.138889 1.000000 0.000000 0.000001
0.416667 0.416667 0.138889 1.000000 0.000000 0.000001
0.416667 0.138889 0.138889 1.000000 0.000000 0.000001
0.138889 0.138889 0.138889 -1.000000 0.000000 -0.000001
0.138889 0.416667 0.138889 -1.000000 0.000000 -0.000001
0.138889 0.416667 -0.138889 -1.000000 0.000000 -0.000001
0.138889 0.138889 -0.138889 -1.000000 0.000000 -0.000001
-0.416667 0.138889 -0.138889 0.000000 1.000000 0.000000
-0.416667 0.138889 0.138889 0.000000 1.000000 0.000000
-0.138889 0.138889 0.138889 0.000000 1.000000 0.000000
-0.138889 0.138889 -0.138889 0.000000 1.000000 0.000000
0.416667 -0.138889 -0.416666 0.000001 0.000000 -1.000000
0.138889 -0.138889 -0.416667 0.000001 0.000000 -1.000000
0.138889 0.138889 -0.416667 0.000001 0.000000 -1.000000
0.416667 0.138889 -0.416666 0.000001 0.000000 -1.000000
0.416667 -0.138889 -0.416666 1.000000 0.000000 0.000001
0.416667 0.138889 -0.416666 1.000000 0.000000 0.000001
0.138889 0.138889 -0.416667 -1.000000 0.000000 -0.000001
0.138889 -0.138889 -0.416667 -1.000000 0.000000 -0.000001
0.416666 0.138889 0.416667 -0.000001 0.000000 1.000000
0.138889 0.138889 0.416667 -0.000001 0.000000 1.000000
0.138889 -0.138889 0.416667 -0.000001 0.000000 1.000000
0.416666 -0.138889 0.416667 -0.000001 0.000000 1.000000
0.416666 0.138889 0.416667 1.000000 0.000000 0.000001
0.416666 -0.138889 0.416667 1.000000 0.000000 0.000001
0.138889 -0.138889 0.416667 -1.000000 0.000000 -0.000001
0.138889 0.138889 0.416667 -1.000000 0.000000 -0.000001
-0.138889 -0.138889 -0.138889 0.000001 0.000000 -1.000000
-0.416667 -0.138889 -0.138889 0.000001 0.000000 -1.000000
-0.416667 0.138889 -0.138889 0.000001 0.000000 -1.000000
-0.138889 0.138889 -0.138889 0.000001 0.000000 -1.000000
-0.138889 0.138889 0.138889 -0.000001 0.000000 1.000000
-0.416667 0.138889 0.138889 -0.000001 0.000000 1.000000
-0.416667 -0.138889 0.138889 -0.000001 0.000000 1.000000
-0.138889 -0.138889 0.138889 -0.000001 0.000000 1.000000
-0.416667 -0.138889 0.138889 -1.000000 0.000000 -0.000001
-0.416667 0.138889 0.138889 -1.000000 0.000000 -0.000001
-0.416667 0.138889 -0.138889 -1.000000 0.000000 -0.000001
-0.416667 -0.138889 -0.138889 -1.000000 0.000000 -0.000001
4 0 1 2 3
4 4 5 6 7
4 8 9 10 11
4 12 13 14 15
4 16 17 18 19
4 20 21 22 23
4 24 25 26 27
4 28 29 30 31
4 32 33 34 35
4 36 37 38 39
4 40 41 42 43
4 44 45 46 47
4 48 49 50 51
4 52 53 54 55
4 56 57 58 59
4 60 61 62 63
4 64 65 66 67
4 68 69 52 37
4 42 59 70 71
4 72 73 74 75
4 38 55 76 77
4 78 79 56 41
4 80 81 82 83
4 84 85 86 87
4 2 80 83 9
4 26 84 87 17
4 6 23 45 44
4 63 62 28 13
4 37 52 55 38
4 88 89 90 91
